<svg width="409" height="848" viewBox="0 0 409 848" fill="none" xmlns="http://www.w3.org/2000/svg">
<!--<rect x="84.5703" y="422.192" width="995.69" height="22.4766" transform="rotate(24.0022 84.5703 422.192)" fill="#D6EBFF"/>-->
<!--<rect x="57.1431" y="338" width="995.69" height="22.4766" transform="rotate(24.0022 57.1431 338)" fill="#D6EBFF"/>-->
<!--<rect x="68.3384" y="378.493" width="995.69" height="22.4766" transform="rotate(24.0022 68.3384 378.493)" fill="#D6EBFF"/>-->
<!--<ellipse cx="301.5" cy="208.5" rx="172.5" ry="143.5" fill="#E3EBFE"/>-->
<!--<ellipse cx="408.5" cy="288.5" rx="172.5" ry="143.5" fill="#E3EBFE"/>-->
<!--<ellipse cx="172.5" cy="104.5" rx="172.5" ry="143.5" fill="#E3EBFE"/>-->

<rect x="84.5703" y="312.192" width="995.69" height="22.4766" transform="rotate(24.0022 84.5703 422.192)" fill="#D6EBFF"/>
<rect x="57.1431" y="228" width="995.69" height="22.4766" transform="rotate(24.0022 57.1431 338)" fill="#D6EBFF"/>
<rect x="68.3384" y="268.493" width="995.69" height="22.4766" transform="rotate(24.0022 68.3384 378.493)" fill="#D6EBFF"/>
<ellipse cx="301.5" cy="98.5" rx="172.5" ry="143.5" fill="#E3EBFE"/>
<ellipse cx="408.5" cy="178.5" rx="172.5" ry="143.5" fill="#E3EBFE"/>
<ellipse cx="172.5" cy="-5.5" rx="172.5" ry="143.5" fill="#E3EBFE"/>
</svg>
